<svg width="177" height="190" viewBox="0 0 177 190" fill="none" xmlns="http://www.w3.org/2000/svg">
<path d="M78.2607 110.173L76.2393 109.689L76.9688 103.203H84.1582V105.251H79.0518L78.7354 108.09C78.9053 107.99 79.1631 107.885 79.5088 107.773C79.8545 107.656 80.2412 107.598 80.6689 107.598C81.29 107.598 81.8408 107.694 82.3213 107.888C82.8018 108.081 83.209 108.362 83.543 108.731C83.8828 109.101 84.1406 109.552 84.3164 110.085C84.4922 110.618 84.5801 111.222 84.5801 111.896C84.5801 112.464 84.4922 113.006 84.3164 113.521C84.1406 114.031 83.874 114.488 83.5166 114.893C83.1592 115.291 82.7109 115.604 82.1719 115.833C81.6328 116.062 80.9941 116.176 80.2559 116.176C79.7051 116.176 79.1719 116.094 78.6562 115.93C78.1465 115.766 77.6865 115.522 77.2764 115.2C76.8721 114.878 76.5469 114.488 76.3008 114.031C76.0605 113.568 75.9346 113.041 75.9229 112.449H78.4365C78.4717 112.812 78.5654 113.126 78.7178 113.39C78.876 113.647 79.084 113.847 79.3418 113.987C79.5996 114.128 79.9014 114.198 80.2471 114.198C80.5693 114.198 80.8447 114.137 81.0732 114.014C81.3018 113.891 81.4863 113.721 81.627 113.504C81.7676 113.281 81.8701 113.023 81.9346 112.73C82.0049 112.432 82.04 112.109 82.04 111.764C82.04 111.418 81.999 111.104 81.917 110.823C81.835 110.542 81.709 110.299 81.5391 110.094C81.3691 109.889 81.1523 109.73 80.8887 109.619C80.6309 109.508 80.3291 109.452 79.9834 109.452C79.5146 109.452 79.1514 109.525 78.8936 109.672C78.6416 109.818 78.4307 109.985 78.2607 110.173ZM94.8369 112.493C94.8369 113.296 94.6494 113.973 94.2744 114.523C93.8994 115.068 93.3838 115.481 92.7275 115.763C92.0771 116.038 91.3389 116.176 90.5127 116.176C89.6865 116.176 88.9453 116.038 88.2891 115.763C87.6328 115.481 87.1143 115.068 86.7334 114.523C86.3525 113.973 86.1621 113.296 86.1621 112.493C86.1621 111.954 86.2705 111.468 86.4873 111.034C86.7041 110.595 87.0059 110.22 87.3926 109.909C87.7852 109.593 88.2451 109.353 88.7725 109.188C89.2998 109.019 89.874 108.934 90.4951 108.934C91.3271 108.934 92.0713 109.08 92.7275 109.373C93.3838 109.666 93.8994 110.079 94.2744 110.612C94.6494 111.146 94.8369 111.772 94.8369 112.493ZM92.2881 112.326C92.2881 111.934 92.2119 111.597 92.0596 111.315C91.9131 111.028 91.7051 110.809 91.4355 110.656C91.166 110.504 90.8525 110.428 90.4951 110.428C90.1377 110.428 89.8242 110.504 89.5547 110.656C89.2852 110.809 89.0742 111.028 88.9219 111.315C88.7754 111.597 88.7021 111.934 88.7021 112.326C88.7021 112.713 88.7754 113.047 88.9219 113.328C89.0742 113.609 89.2852 113.826 89.5547 113.979C89.8301 114.125 90.1494 114.198 90.5127 114.198C90.876 114.198 91.1895 114.125 91.4531 113.979C91.7227 113.826 91.9277 113.609 92.0684 113.328C92.2148 113.047 92.2881 112.713 92.2881 112.326ZM94.5645 106.596C94.5645 107.246 94.3916 107.823 94.0459 108.327C93.7002 108.825 93.2197 109.215 92.6045 109.496C91.9951 109.777 91.2979 109.918 90.5127 109.918C89.7217 109.918 89.0186 109.777 88.4033 109.496C87.7881 109.215 87.3076 108.825 86.9619 108.327C86.6162 107.823 86.4434 107.246 86.4434 106.596C86.4434 105.822 86.6162 105.172 86.9619 104.645C87.3135 104.111 87.7939 103.707 88.4033 103.432C89.0186 103.156 89.7158 103.019 90.4951 103.019C91.2861 103.019 91.9863 103.156 92.5957 103.432C93.2109 103.707 93.6914 104.111 94.0371 104.645C94.3887 105.172 94.5645 105.822 94.5645 106.596ZM92.0332 106.71C92.0332 106.364 91.9717 106.065 91.8486 105.813C91.7256 105.556 91.5498 105.356 91.3213 105.216C91.0986 105.075 90.8232 105.005 90.4951 105.005C90.1787 105.005 89.9062 105.072 89.6777 105.207C89.4551 105.342 89.2822 105.538 89.1592 105.796C89.042 106.048 88.9834 106.353 88.9834 106.71C88.9834 107.056 89.042 107.36 89.1592 107.624C89.2822 107.882 89.458 108.084 89.6865 108.23C89.915 108.377 90.1904 108.45 90.5127 108.45C90.835 108.45 91.1074 108.377 91.3301 108.23C91.5586 108.084 91.7314 107.882 91.8486 107.624C91.9717 107.36 92.0332 107.056 92.0332 106.71ZM96.5156 106.341V105.664C96.5156 105.178 96.6211 104.735 96.832 104.337C97.043 103.938 97.3535 103.619 97.7637 103.379C98.1738 103.139 98.6777 103.019 99.2754 103.019C99.8906 103.019 100.403 103.139 100.813 103.379C101.229 103.619 101.54 103.938 101.745 104.337C101.956 104.735 102.062 105.178 102.062 105.664V106.341C102.062 106.815 101.956 107.252 101.745 107.65C101.54 108.049 101.232 108.368 100.822 108.608C100.412 108.849 99.9053 108.969 99.3018 108.969C98.6924 108.969 98.1797 108.849 97.7637 108.608C97.3535 108.368 97.043 108.049 96.832 107.65C96.6211 107.252 96.5156 106.815 96.5156 106.341ZM98.1943 105.664V106.341C98.1943 106.546 98.2324 106.742 98.3086 106.93C98.3906 107.111 98.5137 107.261 98.6777 107.378C98.8477 107.489 99.0527 107.545 99.293 107.545C99.5449 107.545 99.75 107.489 99.9082 107.378C100.066 107.261 100.184 107.111 100.26 106.93C100.336 106.742 100.374 106.546 100.374 106.341V105.664C100.374 105.447 100.333 105.248 100.251 105.066C100.175 104.879 100.055 104.729 99.8906 104.618C99.7324 104.501 99.5273 104.442 99.2754 104.442C99.041 104.442 98.8418 104.501 98.6777 104.618C98.5137 104.729 98.3906 104.879 98.3086 105.066C98.2324 105.248 98.1943 105.447 98.1943 105.664ZM102.633 113.539V112.862C102.633 112.382 102.738 111.942 102.949 111.544C103.166 111.146 103.479 110.826 103.89 110.586C104.306 110.346 104.815 110.226 105.419 110.226C106.028 110.226 106.538 110.346 106.948 110.586C107.358 110.826 107.669 111.146 107.88 111.544C108.091 111.942 108.196 112.382 108.196 112.862V113.539C108.196 114.02 108.091 114.459 107.88 114.857C107.675 115.256 107.367 115.575 106.957 115.815C106.547 116.056 106.04 116.176 105.437 116.176C104.827 116.176 104.314 116.056 103.898 115.815C103.482 115.575 103.166 115.256 102.949 114.857C102.738 114.459 102.633 114.02 102.633 113.539ZM104.32 112.862V113.539C104.32 113.75 104.367 113.949 104.461 114.137C104.555 114.324 104.684 114.474 104.848 114.585C105.018 114.696 105.214 114.752 105.437 114.752C105.718 114.752 105.938 114.696 106.096 114.585C106.254 114.474 106.362 114.324 106.421 114.137C106.485 113.949 106.518 113.75 106.518 113.539V112.862C106.518 112.651 106.477 112.455 106.395 112.273C106.312 112.086 106.189 111.937 106.025 111.825C105.867 111.708 105.665 111.649 105.419 111.649C105.173 111.649 104.968 111.708 104.804 111.825C104.646 111.937 104.525 112.086 104.443 112.273C104.361 112.455 104.32 112.651 104.32 112.862ZM106.043 105.031L99.7939 115.033L98.5635 114.383L104.812 104.381L106.043 105.031Z" fill="#484848"/>
<path d="M77.7109 88.7109C77.7109 88.5234 77.6641 88.3542 77.5703 88.2031C77.4766 88.0469 77.2969 87.9062 77.0312 87.7812C76.7708 87.6562 76.3854 87.5417 75.875 87.4375C75.4271 87.3385 75.0156 87.2214 74.6406 87.0859C74.2708 86.9453 73.9531 86.776 73.6875 86.5781C73.4219 86.3802 73.2161 86.1458 73.0703 85.875C72.9245 85.6042 72.8516 85.2917 72.8516 84.9375C72.8516 84.5938 72.9271 84.2682 73.0781 83.9609C73.2292 83.6536 73.4453 83.3828 73.7266 83.1484C74.0078 82.9141 74.349 82.7292 74.75 82.5938C75.1562 82.4583 75.6094 82.3906 76.1094 82.3906C76.8177 82.3906 77.4245 82.5104 77.9297 82.75C78.4401 82.9844 78.8307 83.3047 79.1016 83.7109C79.3724 84.112 79.5078 84.5651 79.5078 85.0703H77.625C77.625 84.8464 77.5677 84.638 77.4531 84.4453C77.3438 84.2474 77.1771 84.0885 76.9531 83.9688C76.7292 83.8438 76.4479 83.7812 76.1094 83.7812C75.7865 83.7812 75.5182 83.8333 75.3047 83.9375C75.0964 84.0365 74.9401 84.1667 74.8359 84.3281C74.737 84.4896 74.6875 84.6667 74.6875 84.8594C74.6875 85 74.7135 85.1276 74.7656 85.2422C74.8229 85.3516 74.9167 85.4531 75.0469 85.5469C75.1771 85.6354 75.3542 85.7188 75.5781 85.7969C75.8073 85.875 76.0938 85.9505 76.4375 86.0234C77.0833 86.1589 77.638 86.3333 78.1016 86.5469C78.5703 86.7552 78.9297 87.026 79.1797 87.3594C79.4297 87.6875 79.5547 88.1042 79.5547 88.6094C79.5547 88.9844 79.474 89.3281 79.3125 89.6406C79.1562 89.9479 78.9271 90.2161 78.625 90.4453C78.3229 90.6693 77.9609 90.8438 77.5391 90.9688C77.1224 91.0938 76.6536 91.1562 76.1328 91.1562C75.3672 91.1562 74.7188 91.0208 74.1875 90.75C73.6562 90.474 73.2526 90.1224 72.9766 89.6953C72.7057 89.263 72.5703 88.8151 72.5703 88.3516H74.3906C74.4115 88.7005 74.5078 88.9792 74.6797 89.1875C74.8568 89.3906 75.0755 89.5391 75.3359 89.6328C75.6016 89.7214 75.875 89.7656 76.1562 89.7656C76.4948 89.7656 76.7786 89.7214 77.0078 89.6328C77.237 89.5391 77.4115 89.4141 77.5312 89.2578C77.651 89.0964 77.7109 88.9141 77.7109 88.7109ZM84.6562 89.6562C84.9635 89.6562 85.2396 89.5964 85.4844 89.4766C85.7344 89.3516 85.9349 89.1797 86.0859 88.9609C86.2422 88.7422 86.3281 88.4896 86.3438 88.2031H88.1172C88.1068 88.75 87.9453 89.2474 87.6328 89.6953C87.3203 90.1432 86.9062 90.5 86.3906 90.7656C85.875 91.026 85.3047 91.1562 84.6797 91.1562C84.0339 91.1562 83.4714 91.0469 82.9922 90.8281C82.513 90.6042 82.1146 90.2969 81.7969 89.9062C81.4792 89.5156 81.2396 89.0651 81.0781 88.5547C80.9219 88.0443 80.8438 87.4974 80.8438 86.9141V86.6406C80.8438 86.0573 80.9219 85.5104 81.0781 85C81.2396 84.4844 81.4792 84.0312 81.7969 83.6406C82.1146 83.25 82.513 82.9453 82.9922 82.7266C83.4714 82.5026 84.0312 82.3906 84.6719 82.3906C85.349 82.3906 85.9427 82.526 86.4531 82.7969C86.9635 83.0625 87.3646 83.4349 87.6562 83.9141C87.9531 84.388 88.1068 84.9401 88.1172 85.5703H86.3438C86.3281 85.2578 86.25 84.9766 86.1094 84.7266C85.974 84.4714 85.7812 84.2682 85.5312 84.1172C85.2865 83.9661 84.9922 83.8906 84.6484 83.8906C84.2682 83.8906 83.9531 83.9688 83.7031 84.125C83.4531 84.276 83.2578 84.4844 83.1172 84.75C82.9766 85.0104 82.875 85.3047 82.8125 85.6328C82.7552 85.9557 82.7266 86.2917 82.7266 86.6406V86.9141C82.7266 87.263 82.7552 87.6016 82.8125 87.9297C82.8698 88.2578 82.9688 88.5521 83.1094 88.8125C83.2552 89.0677 83.4531 89.2734 83.7031 89.4297C83.9531 89.5807 84.2708 89.6562 84.6562 89.6562ZM89.2031 86.8672V86.6875C89.2031 86.0781 89.2917 85.513 89.4688 84.9922C89.6458 84.4661 89.901 84.0104 90.2344 83.625C90.5729 83.2344 90.9844 82.9323 91.4688 82.7188C91.9583 82.5 92.5104 82.3906 93.125 82.3906C93.7448 82.3906 94.2969 82.5 94.7812 82.7188C95.2708 82.9323 95.6849 83.2344 96.0234 83.625C96.362 84.0104 96.6198 84.4661 96.7969 84.9922C96.974 85.513 97.0625 86.0781 97.0625 86.6875V86.8672C97.0625 87.4766 96.974 88.0417 96.7969 88.5625C96.6198 89.0833 96.362 89.5391 96.0234 89.9297C95.6849 90.3151 95.2734 90.6172 94.7891 90.8359C94.3047 91.0495 93.7552 91.1562 93.1406 91.1562C92.5208 91.1562 91.9661 91.0495 91.4766 90.8359C90.9922 90.6172 90.5807 90.3151 90.2422 89.9297C89.9036 89.5391 89.6458 89.0833 89.4688 88.5625C89.2917 88.0417 89.2031 87.4766 89.2031 86.8672ZM91.0859 86.6875V86.8672C91.0859 87.2474 91.125 87.6068 91.2031 87.9453C91.2812 88.2839 91.4036 88.5807 91.5703 88.8359C91.737 89.0911 91.9505 89.2917 92.2109 89.4375C92.4714 89.5833 92.7812 89.6562 93.1406 89.6562C93.4896 89.6562 93.7917 89.5833 94.0469 89.4375C94.3073 89.2917 94.5208 89.0911 94.6875 88.8359C94.8542 88.5807 94.9766 88.2839 95.0547 87.9453C95.138 87.6068 95.1797 87.2474 95.1797 86.8672V86.6875C95.1797 86.3125 95.138 85.9583 95.0547 85.625C94.9766 85.2865 94.8516 84.987 94.6797 84.7266C94.513 84.4661 94.2995 84.263 94.0391 84.1172C93.7839 83.9661 93.4792 83.8906 93.125 83.8906C92.7708 83.8906 92.4635 83.9661 92.2031 84.1172C91.9479 84.263 91.737 84.4661 91.5703 84.7266C91.4036 84.987 91.2812 85.2865 91.2031 85.625C91.125 85.9583 91.0859 86.3125 91.0859 86.6875ZM100.531 84.1562V91H98.6484V82.5469H100.445L100.531 84.1562ZM103.117 82.4922L103.102 84.2422C102.987 84.2214 102.862 84.2057 102.727 84.1953C102.596 84.1849 102.466 84.1797 102.336 84.1797C102.013 84.1797 101.729 84.2266 101.484 84.3203C101.24 84.4089 101.034 84.5391 100.867 84.7109C100.706 84.8776 100.581 85.0807 100.492 85.3203C100.404 85.5599 100.352 85.8281 100.336 86.125L99.9062 86.1562C99.9062 85.625 99.9583 85.1328 100.062 84.6797C100.167 84.2266 100.323 83.8281 100.531 83.4844C100.745 83.1406 101.01 82.8724 101.328 82.6797C101.651 82.487 102.023 82.3906 102.445 82.3906C102.56 82.3906 102.682 82.401 102.812 82.4219C102.948 82.4427 103.049 82.4661 103.117 82.4922ZM107.867 91.1562C107.242 91.1562 106.677 91.0547 106.172 90.8516C105.672 90.6432 105.245 90.3542 104.891 89.9844C104.542 89.6146 104.273 89.1797 104.086 88.6797C103.898 88.1797 103.805 87.6406 103.805 87.0625V86.75C103.805 86.0885 103.901 85.4896 104.094 84.9531C104.286 84.4167 104.555 83.9583 104.898 83.5781C105.242 83.1927 105.648 82.8984 106.117 82.6953C106.586 82.4922 107.094 82.3906 107.641 82.3906C108.245 82.3906 108.773 82.4922 109.227 82.6953C109.68 82.8984 110.055 83.1849 110.352 83.5547C110.654 83.9193 110.878 84.3542 111.023 84.8594C111.174 85.3646 111.25 85.9219 111.25 86.5312V87.3359H104.719V85.9844H109.391V85.8359C109.38 85.4974 109.312 85.1797 109.188 84.8828C109.068 84.5859 108.883 84.3464 108.633 84.1641C108.383 83.9818 108.049 83.8906 107.633 83.8906C107.32 83.8906 107.042 83.9583 106.797 84.0938C106.557 84.224 106.357 84.4141 106.195 84.6641C106.034 84.9141 105.909 85.2161 105.82 85.5703C105.737 85.9193 105.695 86.3125 105.695 86.75V87.0625C105.695 87.4323 105.745 87.776 105.844 88.0938C105.948 88.4062 106.099 88.6797 106.297 88.9141C106.495 89.1484 106.734 89.3333 107.016 89.4688C107.297 89.599 107.617 89.6641 107.977 89.6641C108.43 89.6641 108.833 89.5729 109.188 89.3906C109.542 89.2083 109.849 88.9505 110.109 88.6172L111.102 89.5781C110.919 89.8438 110.682 90.099 110.391 90.3438C110.099 90.5833 109.742 90.7786 109.32 90.9297C108.904 91.0807 108.419 91.1562 107.867 91.1562Z" fill="#6B6B6B"/>
<path d="M151.947 104.115C152.464 91.3755 149.194 78.7688 142.549 67.8873C135.905 57.0057 126.184 48.3374 114.616 42.9774L108.5 58C114.5 61 123.38 68.5184 128.306 76.5844C133.231 84.6505 135.655 93.9953 135.272 103.438L151.947 104.115Z" fill="#FF6B6B"/>
<path d="M116.436 39.0157C107.726 35.3646 98.3208 33.6707 88.8845 34.0537C79.4481 34.4367 70.211 36.8872 61.8257 41.2322C53.4405 45.5771 46.1116 51.7105 40.3571 59.1989C34.6025 66.6873 30.5626 75.3481 28.5227 84.5693C26.4829 93.7905 26.4929 103.347 28.5521 112.564C30.6113 121.781 34.6694 130.433 40.4396 137.91C46.2099 145.386 53.5516 151.504 61.9459 155.831C70.3403 160.159 79.5826 162.59 89.0197 162.953L89.8135 142.328C83.3962 142.081 77.1115 140.428 71.4033 137.485C65.6952 134.543 60.7028 130.383 56.779 125.299C52.8552 120.215 50.0957 114.331 48.6955 108.064C47.2953 101.796 47.2885 95.2977 48.6755 89.0273C50.0626 82.7569 52.8098 76.8676 56.7229 71.7755C60.636 66.6833 65.6196 62.5127 71.3216 59.5581C77.0236 56.6035 83.3048 54.9371 89.7215 54.6767C96.1382 54.4163 102.577 55.5172 108.5 58L116.436 39.0157Z" fill="#4DECE3"/>
<path d="M117.57 36.2377C117.997 35.2188 117.517 34.0441 116.487 33.647C108.603 30.6096 100.226 29.0331 91.7664 29.0007C82.6396 28.9657 73.5953 30.7288 65.1498 34.1891C56.7044 37.6495 49.0232 42.7395 42.5449 49.1684C36.5401 55.1274 31.6777 62.1286 28.1919 69.8245C27.7361 70.8306 28.2189 72.0038 29.2378 72.4304L49.1318 80.7602C50.1507 81.1868 51.3182 80.7044 51.7908 79.706C53.969 75.1036 56.9331 70.9102 60.5545 67.3164C64.6496 63.2526 69.505 60.0351 74.8436 57.8477C80.1821 55.6603 85.8992 54.5459 91.6685 54.568C96.7704 54.5875 101.825 55.4955 106.606 57.2463C107.643 57.6261 108.814 57.1505 109.24 56.1317L117.57 36.2377Z" fill="#4DECE3"/>
<path d="M32.0994 73.3651C28.4191 82.0626 26.6936 91.4622 27.0449 100.9C27.3962 110.337 29.8157 119.583 34.1324 127.982C38.4492 136.382 44.5579 143.732 52.0269 149.511C59.4959 155.291 68.1431 159.36 77.3573 161.431C86.5716 163.502 96.1283 163.524 105.352 161.496C114.576 159.467 123.242 155.439 130.737 149.693C138.233 143.948 144.376 136.627 148.731 128.247C153.087 119.868 155.549 110.634 155.944 101.198L135.322 100.335C135.053 106.751 133.379 113.03 130.417 118.728C127.455 124.427 123.279 129.405 118.181 133.312C113.084 137.218 107.192 139.958 100.919 141.337C94.6473 142.716 88.1488 142.701 81.8831 141.293C75.6174 139.885 69.7373 137.118 64.6584 133.188C59.5794 129.258 55.4255 124.26 52.4901 118.548C49.5547 112.836 47.9095 106.55 47.6706 100.132C47.4317 93.7145 48.6051 87.3228 51.1077 81.4085L32.0994 73.3651Z" fill="#20B2AA"/>
<path d="M26.2832 185.283C26.2832 185.143 26.248 185.016 26.1777 184.902C26.1074 184.785 25.9727 184.68 25.7734 184.586C25.5781 184.492 25.2891 184.406 24.9062 184.328C24.5703 184.254 24.2617 184.166 23.9805 184.064C23.7031 183.959 23.4648 183.832 23.2656 183.684C23.0664 183.535 22.9121 183.359 22.8027 183.156C22.6934 182.953 22.6387 182.719 22.6387 182.453C22.6387 182.195 22.6953 181.951 22.8086 181.721C22.9219 181.49 23.084 181.287 23.2949 181.111C23.5059 180.936 23.7617 180.797 24.0625 180.695C24.3672 180.594 24.707 180.543 25.082 180.543C25.6133 180.543 26.0684 180.633 26.4473 180.812C26.8301 180.988 27.123 181.229 27.3262 181.533C27.5293 181.834 27.6309 182.174 27.6309 182.553H26.2188C26.2188 182.385 26.1758 182.229 26.0898 182.084C26.0078 181.936 25.8828 181.816 25.7148 181.727C25.5469 181.633 25.3359 181.586 25.082 181.586C24.8398 181.586 24.6387 181.625 24.4785 181.703C24.3223 181.777 24.2051 181.875 24.127 181.996C24.0527 182.117 24.0156 182.25 24.0156 182.395C24.0156 182.5 24.0352 182.596 24.0742 182.682C24.1172 182.764 24.1875 182.84 24.2852 182.91C24.3828 182.977 24.5156 183.039 24.6836 183.098C24.8555 183.156 25.0703 183.213 25.3281 183.268C25.8125 183.369 26.2285 183.5 26.5762 183.66C26.9277 183.816 27.1973 184.02 27.3848 184.27C27.5723 184.516 27.666 184.828 27.666 185.207C27.666 185.488 27.6055 185.746 27.4844 185.98C27.3672 186.211 27.1953 186.412 26.9688 186.584C26.7422 186.752 26.4707 186.883 26.1543 186.977C25.8418 187.07 25.4902 187.117 25.0996 187.117C24.5254 187.117 24.0391 187.016 23.6406 186.812C23.2422 186.605 22.9395 186.342 22.7324 186.021C22.5293 185.697 22.4277 185.361 22.4277 185.014H23.793C23.8086 185.275 23.8809 185.484 24.0098 185.641C24.1426 185.793 24.3066 185.904 24.502 185.975C24.7012 186.041 24.9062 186.074 25.1172 186.074C25.3711 186.074 25.584 186.041 25.7559 185.975C25.9277 185.904 26.0586 185.811 26.1484 185.693C26.2383 185.572 26.2832 185.436 26.2832 185.283ZM31.4922 185.992C31.7227 185.992 31.9297 185.947 32.1133 185.857C32.3008 185.764 32.4512 185.635 32.5645 185.471C32.6816 185.307 32.7461 185.117 32.7578 184.902H34.0879C34.0801 185.312 33.959 185.686 33.7246 186.021C33.4902 186.357 33.1797 186.625 32.793 186.824C32.4062 187.02 31.9785 187.117 31.5098 187.117C31.0254 187.117 30.6035 187.035 30.2441 186.871C29.8848 186.703 29.5859 186.473 29.3477 186.18C29.1094 185.887 28.9297 185.549 28.8086 185.166C28.6914 184.783 28.6328 184.373 28.6328 183.936V183.73C28.6328 183.293 28.6914 182.883 28.8086 182.5C28.9297 182.113 29.1094 181.773 29.3477 181.48C29.5859 181.188 29.8848 180.959 30.2441 180.795C30.6035 180.627 31.0234 180.543 31.5039 180.543C32.0117 180.543 32.457 180.645 32.8398 180.848C33.2227 181.047 33.5234 181.326 33.7422 181.686C33.9648 182.041 34.0801 182.455 34.0879 182.928H32.7578C32.7461 182.693 32.6875 182.482 32.582 182.295C32.4805 182.104 32.3359 181.951 32.1484 181.838C31.9648 181.725 31.7441 181.668 31.4863 181.668C31.2012 181.668 30.9648 181.727 30.7773 181.844C30.5898 181.957 30.4434 182.113 30.3379 182.312C30.2324 182.508 30.1562 182.729 30.1094 182.975C30.0664 183.217 30.0449 183.469 30.0449 183.73V183.936C30.0449 184.197 30.0664 184.451 30.1094 184.697C30.1523 184.943 30.2266 185.164 30.332 185.359C30.4414 185.551 30.5898 185.705 30.7773 185.822C30.9648 185.936 31.2031 185.992 31.4922 185.992ZM34.9023 183.9V183.766C34.9023 183.309 34.9688 182.885 35.1016 182.494C35.2344 182.1 35.4258 181.758 35.6758 181.469C35.9297 181.176 36.2383 180.949 36.6016 180.789C36.9688 180.625 37.3828 180.543 37.8438 180.543C38.3086 180.543 38.7227 180.625 39.0859 180.789C39.4531 180.949 39.7637 181.176 40.0176 181.469C40.2715 181.758 40.4648 182.1 40.5977 182.494C40.7305 182.885 40.7969 183.309 40.7969 183.766V183.9C40.7969 184.357 40.7305 184.781 40.5977 185.172C40.4648 185.562 40.2715 185.904 40.0176 186.197C39.7637 186.486 39.4551 186.713 39.0918 186.877C38.7285 187.037 38.3164 187.117 37.8555 187.117C37.3906 187.117 36.9746 187.037 36.6074 186.877C36.2441 186.713 35.9355 186.486 35.6816 186.197C35.4277 185.904 35.2344 185.562 35.1016 185.172C34.9688 184.781 34.9023 184.357 34.9023 183.9ZM36.3145 183.766V183.9C36.3145 184.186 36.3438 184.455 36.4023 184.709C36.4609 184.963 36.5527 185.186 36.6777 185.377C36.8027 185.568 36.9629 185.719 37.1582 185.828C37.3535 185.938 37.5859 185.992 37.8555 185.992C38.1172 185.992 38.3438 185.938 38.5352 185.828C38.7305 185.719 38.8906 185.568 39.0156 185.377C39.1406 185.186 39.2324 184.963 39.291 184.709C39.3535 184.455 39.3848 184.186 39.3848 183.9V183.766C39.3848 183.484 39.3535 183.219 39.291 182.969C39.2324 182.715 39.1387 182.49 39.0098 182.295C38.8848 182.1 38.7246 181.947 38.5293 181.838C38.3379 181.725 38.1094 181.668 37.8438 181.668C37.5781 181.668 37.3477 181.725 37.1523 181.838C36.9609 181.947 36.8027 182.1 36.6777 182.295C36.5527 182.49 36.4609 182.715 36.4023 182.969C36.3438 183.219 36.3145 183.484 36.3145 183.766ZM43.3984 181.867V187H41.9863V180.66H43.334L43.3984 181.867ZM45.3379 180.619L45.3262 181.932C45.2402 181.916 45.1465 181.904 45.0449 181.896C44.9473 181.889 44.8496 181.885 44.752 181.885C44.5098 181.885 44.2969 181.92 44.1133 181.99C43.9297 182.057 43.7754 182.154 43.6504 182.283C43.5293 182.408 43.4355 182.561 43.3691 182.74C43.3027 182.92 43.2637 183.121 43.252 183.344L42.9297 183.367C42.9297 182.969 42.9688 182.6 43.0469 182.26C43.125 181.92 43.2422 181.621 43.3984 181.363C43.5586 181.105 43.7578 180.904 43.9961 180.76C44.2383 180.615 44.5176 180.543 44.834 180.543C44.9199 180.543 45.0117 180.551 45.1094 180.566C45.2109 180.582 45.2871 180.6 45.3379 180.619ZM48.9004 187.117C48.4316 187.117 48.0078 187.041 47.6289 186.889C47.2539 186.732 46.9336 186.516 46.668 186.238C46.4062 185.961 46.2051 185.635 46.0645 185.26C45.9238 184.885 45.8535 184.48 45.8535 184.047V183.812C45.8535 183.316 45.9258 182.867 46.0703 182.465C46.2148 182.062 46.416 181.719 46.6738 181.434C46.9316 181.145 47.2363 180.924 47.5879 180.771C47.9395 180.619 48.3203 180.543 48.7305 180.543C49.1836 180.543 49.5801 180.619 49.9199 180.771C50.2598 180.924 50.541 181.139 50.7637 181.416C50.9902 181.689 51.1582 182.016 51.2676 182.395C51.3809 182.773 51.4375 183.191 51.4375 183.648V184.252H46.5391V183.238H50.043V183.127C50.0352 182.873 49.9844 182.635 49.8906 182.412C49.8008 182.189 49.6621 182.01 49.4746 181.873C49.2871 181.736 49.0371 181.668 48.7246 181.668C48.4902 181.668 48.2812 181.719 48.0977 181.82C47.918 181.918 47.7676 182.061 47.6465 182.248C47.5254 182.436 47.4316 182.662 47.3652 182.928C47.3027 183.189 47.2715 183.484 47.2715 183.812V184.047C47.2715 184.324 47.3086 184.582 47.3828 184.82C47.4609 185.055 47.5742 185.26 47.7227 185.436C47.8711 185.611 48.0508 185.75 48.2617 185.852C48.4727 185.949 48.7129 185.998 48.9824 185.998C49.3223 185.998 49.625 185.93 49.8906 185.793C50.1562 185.656 50.3867 185.463 50.582 185.213L51.3262 185.934C51.1895 186.133 51.0117 186.324 50.793 186.508C50.5742 186.688 50.3066 186.834 49.9902 186.947C49.6777 187.061 49.3145 187.117 48.9004 187.117Z" fill="#6B6B6B"/>
<rect x="9" y="179" width="10" height="10" rx="2" fill="#FF6B6B"/>
<path d="M89.2832 185.283C89.2832 185.143 89.248 185.016 89.1777 184.902C89.1074 184.785 88.9727 184.68 88.7734 184.586C88.5781 184.492 88.2891 184.406 87.9062 184.328C87.5703 184.254 87.2617 184.166 86.9805 184.064C86.7031 183.959 86.4648 183.832 86.2656 183.684C86.0664 183.535 85.9121 183.359 85.8027 183.156C85.6934 182.953 85.6387 182.719 85.6387 182.453C85.6387 182.195 85.6953 181.951 85.8086 181.721C85.9219 181.49 86.084 181.287 86.2949 181.111C86.5059 180.936 86.7617 180.797 87.0625 180.695C87.3672 180.594 87.707 180.543 88.082 180.543C88.6133 180.543 89.0684 180.633 89.4473 180.812C89.8301 180.988 90.123 181.229 90.3262 181.533C90.5293 181.834 90.6309 182.174 90.6309 182.553H89.2188C89.2188 182.385 89.1758 182.229 89.0898 182.084C89.0078 181.936 88.8828 181.816 88.7148 181.727C88.5469 181.633 88.3359 181.586 88.082 181.586C87.8398 181.586 87.6387 181.625 87.4785 181.703C87.3223 181.777 87.2051 181.875 87.127 181.996C87.0527 182.117 87.0156 182.25 87.0156 182.395C87.0156 182.5 87.0352 182.596 87.0742 182.682C87.1172 182.764 87.1875 182.84 87.2852 182.91C87.3828 182.977 87.5156 183.039 87.6836 183.098C87.8555 183.156 88.0703 183.213 88.3281 183.268C88.8125 183.369 89.2285 183.5 89.5762 183.66C89.9277 183.816 90.1973 184.02 90.3848 184.27C90.5723 184.516 90.666 184.828 90.666 185.207C90.666 185.488 90.6055 185.746 90.4844 185.98C90.3672 186.211 90.1953 186.412 89.9688 186.584C89.7422 186.752 89.4707 186.883 89.1543 186.977C88.8418 187.07 88.4902 187.117 88.0996 187.117C87.5254 187.117 87.0391 187.016 86.6406 186.812C86.2422 186.605 85.9395 186.342 85.7324 186.021C85.5293 185.697 85.4277 185.361 85.4277 185.014H86.793C86.8086 185.275 86.8809 185.484 87.0098 185.641C87.1426 185.793 87.3066 185.904 87.502 185.975C87.7012 186.041 87.9062 186.074 88.1172 186.074C88.3711 186.074 88.584 186.041 88.7559 185.975C88.9277 185.904 89.0586 185.811 89.1484 185.693C89.2383 185.572 89.2832 185.436 89.2832 185.283ZM94.4922 185.992C94.7227 185.992 94.9297 185.947 95.1133 185.857C95.3008 185.764 95.4512 185.635 95.5645 185.471C95.6816 185.307 95.7461 185.117 95.7578 184.902H97.0879C97.0801 185.312 96.959 185.686 96.7246 186.021C96.4902 186.357 96.1797 186.625 95.793 186.824C95.4062 187.02 94.9785 187.117 94.5098 187.117C94.0254 187.117 93.6035 187.035 93.2441 186.871C92.8848 186.703 92.5859 186.473 92.3477 186.18C92.1094 185.887 91.9297 185.549 91.8086 185.166C91.6914 184.783 91.6328 184.373 91.6328 183.936V183.73C91.6328 183.293 91.6914 182.883 91.8086 182.5C91.9297 182.113 92.1094 181.773 92.3477 181.48C92.5859 181.188 92.8848 180.959 93.2441 180.795C93.6035 180.627 94.0234 180.543 94.5039 180.543C95.0117 180.543 95.457 180.645 95.8398 180.848C96.2227 181.047 96.5234 181.326 96.7422 181.686C96.9648 182.041 97.0801 182.455 97.0879 182.928H95.7578C95.7461 182.693 95.6875 182.482 95.582 182.295C95.4805 182.104 95.3359 181.951 95.1484 181.838C94.9648 181.725 94.7441 181.668 94.4863 181.668C94.2012 181.668 93.9648 181.727 93.7773 181.844C93.5898 181.957 93.4434 182.113 93.3379 182.312C93.2324 182.508 93.1562 182.729 93.1094 182.975C93.0664 183.217 93.0449 183.469 93.0449 183.73V183.936C93.0449 184.197 93.0664 184.451 93.1094 184.697C93.1523 184.943 93.2266 185.164 93.332 185.359C93.4414 185.551 93.5898 185.705 93.7773 185.822C93.9648 185.936 94.2031 185.992 94.4922 185.992ZM97.9023 183.9V183.766C97.9023 183.309 97.9688 182.885 98.1016 182.494C98.2344 182.1 98.4258 181.758 98.6758 181.469C98.9297 181.176 99.2383 180.949 99.6016 180.789C99.9688 180.625 100.383 180.543 100.844 180.543C101.309 180.543 101.723 180.625 102.086 180.789C102.453 180.949 102.764 181.176 103.018 181.469C103.271 181.758 103.465 182.1 103.598 182.494C103.73 182.885 103.797 183.309 103.797 183.766V183.9C103.797 184.357 103.73 184.781 103.598 185.172C103.465 185.562 103.271 185.904 103.018 186.197C102.764 186.486 102.455 186.713 102.092 186.877C101.729 187.037 101.316 187.117 100.855 187.117C100.391 187.117 99.9746 187.037 99.6074 186.877C99.2441 186.713 98.9355 186.486 98.6816 186.197C98.4277 185.904 98.2344 185.562 98.1016 185.172C97.9688 184.781 97.9023 184.357 97.9023 183.9ZM99.3145 183.766V183.9C99.3145 184.186 99.3438 184.455 99.4023 184.709C99.4609 184.963 99.5527 185.186 99.6777 185.377C99.8027 185.568 99.9629 185.719 100.158 185.828C100.354 185.938 100.586 185.992 100.855 185.992C101.117 185.992 101.344 185.938 101.535 185.828C101.73 185.719 101.891 185.568 102.016 185.377C102.141 185.186 102.232 184.963 102.291 184.709C102.354 184.455 102.385 184.186 102.385 183.9V183.766C102.385 183.484 102.354 183.219 102.291 182.969C102.232 182.715 102.139 182.49 102.01 182.295C101.885 182.1 101.725 181.947 101.529 181.838C101.338 181.725 101.109 181.668 100.844 181.668C100.578 181.668 100.348 181.725 100.152 181.838C99.9609 181.947 99.8027 182.1 99.6777 182.295C99.5527 182.49 99.4609 182.715 99.4023 182.969C99.3438 183.219 99.3145 183.484 99.3145 183.766ZM106.398 181.867V187H104.986V180.66H106.334L106.398 181.867ZM108.338 180.619L108.326 181.932C108.24 181.916 108.146 181.904 108.045 181.896C107.947 181.889 107.85 181.885 107.752 181.885C107.51 181.885 107.297 181.92 107.113 181.99C106.93 182.057 106.775 182.154 106.65 182.283C106.529 182.408 106.436 182.561 106.369 182.74C106.303 182.92 106.264 183.121 106.252 183.344L105.93 183.367C105.93 182.969 105.969 182.6 106.047 182.26C106.125 181.92 106.242 181.621 106.398 181.363C106.559 181.105 106.758 180.904 106.996 180.76C107.238 180.615 107.518 180.543 107.834 180.543C107.92 180.543 108.012 180.551 108.109 180.566C108.211 180.582 108.287 180.6 108.338 180.619ZM111.9 187.117C111.432 187.117 111.008 187.041 110.629 186.889C110.254 186.732 109.934 186.516 109.668 186.238C109.406 185.961 109.205 185.635 109.064 185.26C108.924 184.885 108.854 184.48 108.854 184.047V183.812C108.854 183.316 108.926 182.867 109.07 182.465C109.215 182.062 109.416 181.719 109.674 181.434C109.932 181.145 110.236 180.924 110.588 180.771C110.939 180.619 111.32 180.543 111.73 180.543C112.184 180.543 112.58 180.619 112.92 180.771C113.26 180.924 113.541 181.139 113.764 181.416C113.99 181.689 114.158 182.016 114.268 182.395C114.381 182.773 114.438 183.191 114.438 183.648V184.252H109.539V183.238H113.043V183.127C113.035 182.873 112.984 182.635 112.891 182.412C112.801 182.189 112.662 182.01 112.475 181.873C112.287 181.736 112.037 181.668 111.725 181.668C111.49 181.668 111.281 181.719 111.098 181.82C110.918 181.918 110.768 182.061 110.646 182.248C110.525 182.436 110.432 182.662 110.365 182.928C110.303 183.189 110.271 183.484 110.271 183.812V184.047C110.271 184.324 110.309 184.582 110.383 184.82C110.461 185.055 110.574 185.26 110.723 185.436C110.871 185.611 111.051 185.75 111.262 185.852C111.473 185.949 111.713 185.998 111.982 185.998C112.322 185.998 112.625 185.93 112.891 185.793C113.156 185.656 113.387 185.463 113.582 185.213L114.326 185.934C114.189 186.133 114.012 186.324 113.793 186.508C113.574 186.688 113.307 186.834 112.99 186.947C112.678 187.061 112.314 187.117 111.9 187.117Z" fill="#6B6B6B"/>
<rect x="72" y="179" width="10" height="10" rx="2" fill="#20B2AA"/>
<path d="M151.283 185.283C151.283 185.143 151.248 185.016 151.178 184.902C151.107 184.785 150.973 184.68 150.773 184.586C150.578 184.492 150.289 184.406 149.906 184.328C149.57 184.254 149.262 184.166 148.98 184.064C148.703 183.959 148.465 183.832 148.266 183.684C148.066 183.535 147.912 183.359 147.803 183.156C147.693 182.953 147.639 182.719 147.639 182.453C147.639 182.195 147.695 181.951 147.809 181.721C147.922 181.49 148.084 181.287 148.295 181.111C148.506 180.936 148.762 180.797 149.062 180.695C149.367 180.594 149.707 180.543 150.082 180.543C150.613 180.543 151.068 180.633 151.447 180.812C151.83 180.988 152.123 181.229 152.326 181.533C152.529 181.834 152.631 182.174 152.631 182.553H151.219C151.219 182.385 151.176 182.229 151.09 182.084C151.008 181.936 150.883 181.816 150.715 181.727C150.547 181.633 150.336 181.586 150.082 181.586C149.84 181.586 149.639 181.625 149.479 181.703C149.322 181.777 149.205 181.875 149.127 181.996C149.053 182.117 149.016 182.25 149.016 182.395C149.016 182.5 149.035 182.596 149.074 182.682C149.117 182.764 149.188 182.84 149.285 182.91C149.383 182.977 149.516 183.039 149.684 183.098C149.855 183.156 150.07 183.213 150.328 183.268C150.812 183.369 151.229 183.5 151.576 183.66C151.928 183.816 152.197 184.02 152.385 184.27C152.572 184.516 152.666 184.828 152.666 185.207C152.666 185.488 152.605 185.746 152.484 185.98C152.367 186.211 152.195 186.412 151.969 186.584C151.742 186.752 151.471 186.883 151.154 186.977C150.842 187.07 150.49 187.117 150.1 187.117C149.525 187.117 149.039 187.016 148.641 186.812C148.242 186.605 147.939 186.342 147.732 186.021C147.529 185.697 147.428 185.361 147.428 185.014H148.793C148.809 185.275 148.881 185.484 149.01 185.641C149.143 185.793 149.307 185.904 149.502 185.975C149.701 186.041 149.906 186.074 150.117 186.074C150.371 186.074 150.584 186.041 150.756 185.975C150.928 185.904 151.059 185.811 151.148 185.693C151.238 185.572 151.283 185.436 151.283 185.283ZM156.492 185.992C156.723 185.992 156.93 185.947 157.113 185.857C157.301 185.764 157.451 185.635 157.564 185.471C157.682 185.307 157.746 185.117 157.758 184.902H159.088C159.08 185.312 158.959 185.686 158.725 186.021C158.49 186.357 158.18 186.625 157.793 186.824C157.406 187.02 156.979 187.117 156.51 187.117C156.025 187.117 155.604 187.035 155.244 186.871C154.885 186.703 154.586 186.473 154.348 186.18C154.109 185.887 153.93 185.549 153.809 185.166C153.691 184.783 153.633 184.373 153.633 183.936V183.73C153.633 183.293 153.691 182.883 153.809 182.5C153.93 182.113 154.109 181.773 154.348 181.48C154.586 181.188 154.885 180.959 155.244 180.795C155.604 180.627 156.023 180.543 156.504 180.543C157.012 180.543 157.457 180.645 157.84 180.848C158.223 181.047 158.523 181.326 158.742 181.686C158.965 182.041 159.08 182.455 159.088 182.928H157.758C157.746 182.693 157.688 182.482 157.582 182.295C157.48 182.104 157.336 181.951 157.148 181.838C156.965 181.725 156.744 181.668 156.486 181.668C156.201 181.668 155.965 181.727 155.777 181.844C155.59 181.957 155.443 182.113 155.338 182.312C155.232 182.508 155.156 182.729 155.109 182.975C155.066 183.217 155.045 183.469 155.045 183.73V183.936C155.045 184.197 155.066 184.451 155.109 184.697C155.152 184.943 155.227 185.164 155.332 185.359C155.441 185.551 155.59 185.705 155.777 185.822C155.965 185.936 156.203 185.992 156.492 185.992ZM159.902 183.9V183.766C159.902 183.309 159.969 182.885 160.102 182.494C160.234 182.1 160.426 181.758 160.676 181.469C160.93 181.176 161.238 180.949 161.602 180.789C161.969 180.625 162.383 180.543 162.844 180.543C163.309 180.543 163.723 180.625 164.086 180.789C164.453 180.949 164.764 181.176 165.018 181.469C165.271 181.758 165.465 182.1 165.598 182.494C165.73 182.885 165.797 183.309 165.797 183.766V183.9C165.797 184.357 165.73 184.781 165.598 185.172C165.465 185.562 165.271 185.904 165.018 186.197C164.764 186.486 164.455 186.713 164.092 186.877C163.729 187.037 163.316 187.117 162.855 187.117C162.391 187.117 161.975 187.037 161.607 186.877C161.244 186.713 160.936 186.486 160.682 186.197C160.428 185.904 160.234 185.562 160.102 185.172C159.969 184.781 159.902 184.357 159.902 183.9ZM161.314 183.766V183.9C161.314 184.186 161.344 184.455 161.402 184.709C161.461 184.963 161.553 185.186 161.678 185.377C161.803 185.568 161.963 185.719 162.158 185.828C162.354 185.938 162.586 185.992 162.855 185.992C163.117 185.992 163.344 185.938 163.535 185.828C163.73 185.719 163.891 185.568 164.016 185.377C164.141 185.186 164.232 184.963 164.291 184.709C164.354 184.455 164.385 184.186 164.385 183.9V183.766C164.385 183.484 164.354 183.219 164.291 182.969C164.232 182.715 164.139 182.49 164.01 182.295C163.885 182.1 163.725 181.947 163.529 181.838C163.338 181.725 163.109 181.668 162.844 181.668C162.578 181.668 162.348 181.725 162.152 181.838C161.961 181.947 161.803 182.1 161.678 182.295C161.553 182.49 161.461 182.715 161.402 182.969C161.344 183.219 161.314 183.484 161.314 183.766ZM168.398 181.867V187H166.986V180.66H168.334L168.398 181.867ZM170.338 180.619L170.326 181.932C170.24 181.916 170.146 181.904 170.045 181.896C169.947 181.889 169.85 181.885 169.752 181.885C169.51 181.885 169.297 181.92 169.113 181.99C168.93 182.057 168.775 182.154 168.65 182.283C168.529 182.408 168.436 182.561 168.369 182.74C168.303 182.92 168.264 183.121 168.252 183.344L167.93 183.367C167.93 182.969 167.969 182.6 168.047 182.26C168.125 181.92 168.242 181.621 168.398 181.363C168.559 181.105 168.758 180.904 168.996 180.76C169.238 180.615 169.518 180.543 169.834 180.543C169.92 180.543 170.012 180.551 170.109 180.566C170.211 180.582 170.287 180.6 170.338 180.619ZM173.9 187.117C173.432 187.117 173.008 187.041 172.629 186.889C172.254 186.732 171.934 186.516 171.668 186.238C171.406 185.961 171.205 185.635 171.064 185.26C170.924 184.885 170.854 184.48 170.854 184.047V183.812C170.854 183.316 170.926 182.867 171.07 182.465C171.215 182.062 171.416 181.719 171.674 181.434C171.932 181.145 172.236 180.924 172.588 180.771C172.939 180.619 173.32 180.543 173.73 180.543C174.184 180.543 174.58 180.619 174.92 180.771C175.26 180.924 175.541 181.139 175.764 181.416C175.99 181.689 176.158 182.016 176.268 182.395C176.381 182.773 176.438 183.191 176.438 183.648V184.252H171.539V183.238H175.043V183.127C175.035 182.873 174.984 182.635 174.891 182.412C174.801 182.189 174.662 182.01 174.475 181.873C174.287 181.736 174.037 181.668 173.725 181.668C173.49 181.668 173.281 181.719 173.098 181.82C172.918 181.918 172.768 182.061 172.646 182.248C172.525 182.436 172.432 182.662 172.365 182.928C172.303 183.189 172.271 183.484 172.271 183.812V184.047C172.271 184.324 172.309 184.582 172.383 184.82C172.461 185.055 172.574 185.26 172.723 185.436C172.871 185.611 173.051 185.75 173.262 185.852C173.473 185.949 173.713 185.998 173.982 185.998C174.322 185.998 174.625 185.93 174.891 185.793C175.156 185.656 175.387 185.463 175.582 185.213L176.326 185.934C176.189 186.133 176.012 186.324 175.793 186.508C175.574 186.688 175.307 186.834 174.99 186.947C174.678 187.061 174.314 187.117 173.9 187.117Z" fill="#6B6B6B"/>
<rect x="134" y="179" width="10" height="10" rx="2" fill="#4DECE3"/>
<path d="M6.72656 11.9766C6.72656 11.7995 6.70052 11.6406 6.64844 11.5C6.59635 11.3542 6.5 11.2188 6.35938 11.0938C6.21875 10.9688 6.01562 10.8438 5.75 10.7188C5.48958 10.5885 5.14583 10.4531 4.71875 10.3125C4.21875 10.1458 3.73698 9.95833 3.27344 9.75C2.8099 9.53646 2.39583 9.28906 2.03125 9.00781C1.66667 8.72135 1.3776 8.38802 1.16406 8.00781C0.950521 7.6224 0.84375 7.17448 0.84375 6.66406C0.84375 6.17448 0.953125 5.73438 1.17188 5.34375C1.39062 4.94792 1.69531 4.61198 2.08594 4.33594C2.48177 4.05469 2.94531 3.84115 3.47656 3.69531C4.00781 3.54427 4.58854 3.46875 5.21875 3.46875C6.05208 3.46875 6.78646 3.61458 7.42188 3.90625C8.0625 4.19271 8.5625 4.60156 8.92188 5.13281C9.28646 5.65885 9.46875 6.28125 9.46875 7H6.74219C6.74219 6.71354 6.68229 6.46094 6.5625 6.24219C6.44792 6.02344 6.27344 5.85156 6.03906 5.72656C5.80469 5.60156 5.51042 5.53906 5.15625 5.53906C4.8125 5.53906 4.52344 5.59115 4.28906 5.69531C4.05469 5.79948 3.8776 5.9401 3.75781 6.11719C3.63802 6.28906 3.57812 6.47917 3.57812 6.6875C3.57812 6.85938 3.625 7.01562 3.71875 7.15625C3.81771 7.29167 3.95573 7.41927 4.13281 7.53906C4.3151 7.65885 4.53385 7.77344 4.78906 7.88281C5.04948 7.99219 5.34115 8.09896 5.66406 8.20312C6.26823 8.39583 6.80469 8.61198 7.27344 8.85156C7.7474 9.08594 8.14583 9.35417 8.46875 9.65625C8.79688 9.95312 9.04427 10.2917 9.21094 10.6719C9.38281 11.0521 9.46875 11.4818 9.46875 11.9609C9.46875 12.4714 9.36979 12.9245 9.17188 13.3203C8.97396 13.7161 8.6901 14.0521 8.32031 14.3281C7.95052 14.599 7.50781 14.8047 6.99219 14.9453C6.47656 15.0859 5.90104 15.1562 5.26562 15.1562C4.68229 15.1562 4.10677 15.0833 3.53906 14.9375C2.97656 14.7865 2.46615 14.5573 2.00781 14.25C1.54948 13.9375 1.18229 13.5391 0.90625 13.0547C0.635417 12.5651 0.5 11.9844 0.5 11.3125H3.25C3.25 11.6458 3.29427 11.9271 3.38281 12.1562C3.47135 12.3854 3.60156 12.5703 3.77344 12.7109C3.94531 12.8464 4.15625 12.9453 4.40625 13.0078C4.65625 13.0651 4.94271 13.0938 5.26562 13.0938C5.61458 13.0938 5.89583 13.0443 6.10938 12.9453C6.32292 12.8411 6.47917 12.7057 6.57812 12.5391C6.67708 12.3672 6.72656 12.1797 6.72656 11.9766ZM14.8516 15.1562C14.1641 15.1562 13.5495 15.0495 13.0078 14.8359C12.4661 14.6172 12.0078 14.3177 11.6328 13.9375C11.263 13.5573 10.9792 13.1198 10.7812 12.625C10.5885 12.1302 10.4922 11.6068 10.4922 11.0547V10.7578C10.4922 10.138 10.5781 9.5651 10.75 9.03906C10.9219 8.50781 11.1771 8.04427 11.5156 7.64844C11.8542 7.2526 12.2786 6.94531 12.7891 6.72656C13.2995 6.5026 13.8932 6.39062 14.5703 6.39062C15.1693 6.39062 15.7057 6.48698 16.1797 6.67969C16.6536 6.8724 17.0547 7.14844 17.3828 7.50781C17.7161 7.86719 17.9688 8.30208 18.1406 8.8125C18.3177 9.32292 18.4062 9.89583 18.4062 10.5312V11.6016H11.5V9.95312H15.8359V9.75C15.8411 9.46875 15.7917 9.22917 15.6875 9.03125C15.5885 8.83333 15.4427 8.68229 15.25 8.57812C15.0573 8.47396 14.8229 8.42188 14.5469 8.42188C14.2604 8.42188 14.0234 8.48438 13.8359 8.60938C13.6536 8.73438 13.5104 8.90625 13.4062 9.125C13.3073 9.33854 13.237 9.58594 13.1953 9.86719C13.1536 10.1484 13.1328 10.4453 13.1328 10.7578V11.0547C13.1328 11.3672 13.1745 11.651 13.2578 11.9062C13.3464 12.1615 13.4714 12.3802 13.6328 12.5625C13.7995 12.7396 13.9974 12.8776 14.2266 12.9766C14.4609 13.0755 14.7266 13.125 15.0234 13.125C15.3828 13.125 15.737 13.0573 16.0859 12.9219C16.4349 12.7865 16.7344 12.5625 16.9844 12.25L18.1797 13.6719C18.0078 13.9167 17.763 14.1536 17.4453 14.3828C17.1328 14.612 16.7578 14.7995 16.3203 14.9453C15.8828 15.0859 15.3932 15.1562 14.8516 15.1562ZM22.1328 8.64062V15H19.5V6.54688H21.9609L22.1328 8.64062ZM24.6328 6.48438L24.5859 8.92969C24.4818 8.91927 24.3411 8.90625 24.1641 8.89062C23.987 8.875 23.8385 8.86719 23.7188 8.86719C23.4115 8.86719 23.1458 8.90365 22.9219 8.97656C22.7031 9.04427 22.5208 9.14844 22.375 9.28906C22.2344 9.42448 22.1302 9.59635 22.0625 9.80469C22 10.013 21.9714 10.2552 21.9766 10.5312L21.5 10.2188C21.5 9.65104 21.5547 9.13542 21.6641 8.67188C21.7786 8.20312 21.9401 7.79948 22.1484 7.46094C22.3568 7.11719 22.6094 6.85417 22.9062 6.67188C23.2031 6.48438 23.5365 6.39062 23.9062 6.39062C24.0365 6.39062 24.1641 6.39844 24.2891 6.41406C24.4193 6.42969 24.5339 6.45312 24.6328 6.48438ZM28.7266 13.1953L30.3906 6.54688H33.1641L30.3984 15H28.7578L28.7266 13.1953ZM27.7422 6.54688L29.3828 13.1953L29.3672 15H27.7188L24.9609 6.54688H27.7422ZM36.7266 6.54688V15H34.0859V6.54688H36.7266ZM33.9297 4.36719C33.9297 3.99219 34.0651 3.6849 34.3359 3.44531C34.6068 3.20573 34.9583 3.08594 35.3906 3.08594C35.8229 3.08594 36.1745 3.20573 36.4453 3.44531C36.7161 3.6849 36.8516 3.99219 36.8516 4.36719C36.8516 4.74219 36.7161 5.04948 36.4453 5.28906C36.1745 5.52865 35.8229 5.64844 35.3906 5.64844C34.9583 5.64844 34.6068 5.52865 34.3359 5.28906C34.0651 5.04948 33.9297 4.74219 33.9297 4.36719ZM41.9219 13.125C42.1667 13.125 42.375 13.0807 42.5469 12.9922C42.724 12.8984 42.8568 12.7682 42.9453 12.6016C43.0391 12.4297 43.0833 12.224 43.0781 11.9844H45.5547C45.5599 12.6198 45.4036 13.1771 45.0859 13.6562C44.7734 14.1302 44.3464 14.5 43.8047 14.7656C43.2682 15.026 42.6615 15.1562 41.9844 15.1562C41.3229 15.1562 40.7448 15.0495 40.25 14.8359C39.7552 14.6172 39.3411 14.3151 39.0078 13.9297C38.6797 13.5391 38.4323 13.0833 38.2656 12.5625C38.1042 12.0417 38.0234 11.4766 38.0234 10.8672V10.6875C38.0234 10.0781 38.1042 9.51302 38.2656 8.99219C38.4323 8.46615 38.6797 8.01042 39.0078 7.625C39.3411 7.23438 39.7526 6.93229 40.2422 6.71875C40.737 6.5 41.3125 6.39062 41.9688 6.39062C42.6719 6.39062 43.2917 6.52344 43.8281 6.78906C44.3698 7.05469 44.7943 7.4401 45.1016 7.94531C45.4089 8.45052 45.5599 9.0625 45.5547 9.78125H43.0781C43.0833 9.52604 43.0443 9.29688 42.9609 9.09375C42.8776 8.89062 42.7474 8.72917 42.5703 8.60938C42.3984 8.48438 42.1771 8.42188 41.9062 8.42188C41.6354 8.42188 41.4167 8.48177 41.25 8.60156C41.0833 8.72135 40.9557 8.88802 40.8672 9.10156C40.7839 9.3099 40.7266 9.54948 40.6953 9.82031C40.6693 10.0911 40.6562 10.3802 40.6562 10.6875V10.8672C40.6562 11.1797 40.6693 11.474 40.6953 11.75C40.7266 12.0208 40.7865 12.2604 40.875 12.4688C40.9635 12.6719 41.0911 12.8333 41.2578 12.9531C41.4245 13.0677 41.6458 13.125 41.9219 13.125ZM50.7734 15.1562C50.0859 15.1562 49.4714 15.0495 48.9297 14.8359C48.388 14.6172 47.9297 14.3177 47.5547 13.9375C47.1849 13.5573 46.901 13.1198 46.7031 12.625C46.5104 12.1302 46.4141 11.6068 46.4141 11.0547V10.7578C46.4141 10.138 46.5 9.5651 46.6719 9.03906C46.8438 8.50781 47.099 8.04427 47.4375 7.64844C47.776 7.2526 48.2005 6.94531 48.7109 6.72656C49.2214 6.5026 49.8151 6.39062 50.4922 6.39062C51.0911 6.39062 51.6276 6.48698 52.1016 6.67969C52.5755 6.8724 52.9766 7.14844 53.3047 7.50781C53.638 7.86719 53.8906 8.30208 54.0625 8.8125C54.2396 9.32292 54.3281 9.89583 54.3281 10.5312V11.6016H47.4219V9.95312H51.7578V9.75C51.763 9.46875 51.7135 9.22917 51.6094 9.03125C51.5104 8.83333 51.3646 8.68229 51.1719 8.57812C50.9792 8.47396 50.7448 8.42188 50.4688 8.42188C50.1823 8.42188 49.9453 8.48438 49.7578 8.60938C49.5755 8.73438 49.4323 8.90625 49.3281 9.125C49.2292 9.33854 49.1589 9.58594 49.1172 9.86719C49.0755 10.1484 49.0547 10.4453 49.0547 10.7578V11.0547C49.0547 11.3672 49.0964 11.651 49.1797 11.9062C49.2682 12.1615 49.3932 12.3802 49.5547 12.5625C49.7214 12.7396 49.9193 12.8776 50.1484 12.9766C50.3828 13.0755 50.6484 13.125 50.9453 13.125C51.3047 13.125 51.6589 13.0573 52.0078 12.9219C52.3568 12.7865 52.6562 12.5625 52.9062 12.25L54.1016 13.6719C53.9297 13.9167 53.6849 14.1536 53.3672 14.3828C53.0547 14.612 52.6797 14.7995 52.2422 14.9453C51.8047 15.0859 51.3151 15.1562 50.7734 15.1562ZM59.8281 12.625C59.8281 12.4792 59.7786 12.3542 59.6797 12.25C59.5859 12.1406 59.4193 12.0417 59.1797 11.9531C58.9401 11.8594 58.6042 11.7656 58.1719 11.6719C57.7604 11.5833 57.3724 11.4661 57.0078 11.3203C56.6484 11.1745 56.3333 10.9974 56.0625 10.7891C55.7917 10.5807 55.5781 10.3333 55.4219 10.0469C55.2708 9.76042 55.1953 9.43229 55.1953 9.0625C55.1953 8.70312 55.2708 8.36458 55.4219 8.04688C55.5781 7.72396 55.8047 7.4401 56.1016 7.19531C56.4036 6.94531 56.7708 6.75 57.2031 6.60938C57.6354 6.46354 58.1276 6.39062 58.6797 6.39062C59.4401 6.39062 60.0964 6.50781 60.6484 6.74219C61.2005 6.97135 61.625 7.29427 61.9219 7.71094C62.224 8.1224 62.375 8.59896 62.375 9.14062H59.7422C59.7422 8.92708 59.7057 8.74479 59.6328 8.59375C59.5651 8.44271 59.4531 8.32812 59.2969 8.25C59.1406 8.16667 58.9323 8.125 58.6719 8.125C58.4896 8.125 58.3229 8.15885 58.1719 8.22656C58.026 8.29427 57.9089 8.38802 57.8203 8.50781C57.7318 8.6276 57.6875 8.76823 57.6875 8.92969C57.6875 9.04427 57.7135 9.14844 57.7656 9.24219C57.8229 9.33073 57.9089 9.41406 58.0234 9.49219C58.138 9.5651 58.2839 9.63281 58.4609 9.69531C58.638 9.7526 58.8516 9.80469 59.1016 9.85156C59.6693 9.95573 60.2005 10.1042 60.6953 10.2969C61.1901 10.4896 61.5911 10.763 61.8984 11.1172C62.2109 11.4714 62.3672 11.9479 62.3672 12.5469C62.3672 12.9219 62.2812 13.2682 62.1094 13.5859C61.9375 13.8984 61.6901 14.1745 61.3672 14.4141C61.0443 14.6484 60.6562 14.8307 60.2031 14.9609C59.75 15.0911 59.2396 15.1562 58.6719 15.1562C57.8646 15.1562 57.1823 15.013 56.625 14.7266C56.0677 14.4349 55.6458 14.0703 55.3594 13.6328C55.0781 13.1901 54.9375 12.7422 54.9375 12.2891H57.3906C57.401 12.5495 57.4635 12.763 57.5781 12.9297C57.6979 13.0964 57.8568 13.2188 58.0547 13.2969C58.2526 13.375 58.4818 13.4141 58.7422 13.4141C58.9818 13.4141 59.1797 13.3802 59.3359 13.3125C59.4974 13.2448 59.6198 13.1536 59.7031 13.0391C59.7865 12.9193 59.8281 12.7812 59.8281 12.625Z" fill="#1E1E1E"/>
</svg>
